<svg width="24" height="24" viewBox="0 0 24 24" fill="none" xmlns="http://www.w3.org/2000/svg">
<path d="M8.70296 16.95C8.79594 16.8571 8.8697 16.7468 8.92002 16.6254C8.97034 16.504 8.99625 16.3739 8.99625 16.2425C8.99625 16.1111 8.97034 15.981 8.92002 15.8596C8.8697 15.7382 8.79594 15.6279 8.70296 15.535L6.16696 13H15C15.2652 13 15.5195 12.8946 15.7071 12.7071C15.8946 12.5196 16 12.2652 16 12C16 11.7348 15.8946 11.4804 15.7071 11.2929C15.5195 11.1054 15.2652 11 15 11H6.16696L8.70296 8.464C8.89047 8.27636 8.99576 8.02192 8.99566 7.75665C8.99557 7.49138 8.8901 7.23701 8.70246 7.0495C8.51482 6.86199 8.26038 6.7567 7.99511 6.7568C7.72984 6.75689 7.47547 6.86236 7.28796 7.05L3.04596 11.293C2.85849 11.4805 2.75317 11.7348 2.75317 12C2.75317 12.2652 2.85849 12.5195 3.04596 12.707L7.28796 16.95C7.38083 17.043 7.49112 17.1167 7.61252 17.1671C7.73392 17.2174 7.86405 17.2433 7.99546 17.2433C8.12688 17.2433 8.257 17.2174 8.3784 17.1671C8.4998 17.1167 8.61009 17.043 8.70296 16.95ZM21 6C21 5.73478 20.8946 5.48043 20.7071 5.29289C20.5195 5.10536 20.2652 5 20 5C19.7347 5 19.4804 5.10536 19.2929 5.29289C19.1053 5.48043 19 5.73478 19 6V18C19 18.2652 19.1053 18.5196 19.2929 18.7071C19.4804 18.8946 19.7347 19 20 19C20.2652 19 20.5195 18.8946 20.7071 18.7071C20.8946 18.5196 21 18.2652 21 18V6Z" fill="#3D3D42"/>
</svg>
