<svg width="20" height="20" viewBox="0 0 20 20" fill="none" xmlns="http://www.w3.org/2000/svg">
<path d="M10.5893 3.03012C10.433 2.8739 10.2211 2.78613 10.0001 2.78613C9.77915 2.78613 9.56723 2.8739 9.41096 3.03012L4.69679 7.74429C4.6172 7.82116 4.55371 7.91312 4.51004 8.01478C4.46636 8.11645 4.44338 8.2258 4.44241 8.33645C4.44145 8.4471 4.46254 8.55684 4.50444 8.65925C4.54634 8.76166 4.60822 8.85471 4.68646 8.93295C4.7647 9.01119 4.85775 9.07307 4.96016 9.11497C5.06257 9.15687 5.17231 9.17796 5.28296 9.177C5.39361 9.17604 5.50296 9.15305 5.60463 9.10937C5.7063 9.0657 5.79825 9.00221 5.87512 8.92262L9.16679 5.63095V16.6668C9.16679 16.8878 9.25459 17.0998 9.41087 17.256C9.56715 17.4123 9.77911 17.5001 10.0001 17.5001C10.2211 17.5001 10.4331 17.4123 10.5894 17.256C10.7457 17.0998 10.8335 16.8878 10.8335 16.6668V5.63095L14.1251 8.92262C14.2823 9.07442 14.4928 9.15842 14.7113 9.15652C14.9298 9.15462 15.1388 9.06698 15.2933 8.91247C15.4478 8.75796 15.5355 8.54895 15.5374 8.33046C15.5393 8.11196 15.4553 7.90146 15.3035 7.74429L10.5893 3.03012Z" fill="currentColor"/>
</svg>
