<svg width="20" height="20" viewBox="0 0 20 20" fill="none" xmlns="http://www.w3.org/2000/svg">
<path d="M16.6666 10.0002C16.6666 11.3187 16.2756 12.6076 15.543 13.704C14.8105 14.8003 13.7693 15.6548 12.5511 16.1594C11.333 16.6639 9.99252 16.796 8.69932 16.5387C7.40611 16.2815 6.21823 15.6466 5.28588 14.7142C4.35353 13.7819 3.71859 12.594 3.46135 11.3008C3.20412 10.0076 3.33614 8.66711 3.84072 7.44894C4.34531 6.23076 5.19979 5.18957 6.29612 4.45703C7.39245 3.72449 8.68138 3.3335 9.99992 3.3335C11.7674 3.3357 13.4618 4.03879 14.7115 5.28855C15.9613 6.53832 16.6644 8.23273 16.6666 10.0002Z" fill="#3D3D42"/>
</svg>
