<svg width="16" height="16" viewBox="0 0 16 16" fill="none" xmlns="http://www.w3.org/2000/svg">
<path fill-rule="evenodd" clip-rule="evenodd" d="M6.00016 1.33301C5.64654 1.33301 5.3074 1.47348 5.05735 1.72353C4.80731 1.97358 4.66683 2.31272 4.66683 2.66634V3.99967H6.00016V2.66634H13.3335V9.99967H12.0002V11.333H13.3335C13.6871 11.333 14.0263 11.1925 14.2763 10.9425C14.5264 10.6924 14.6668 10.3533 14.6668 9.99967V2.66634C14.6668 2.31272 14.5264 1.97358 14.2763 1.72353C14.0263 1.47348 13.6871 1.33301 13.3335 1.33301H6.00016ZM2.66683 4.66634C2.31321 4.66634 1.97407 4.80682 1.72402 5.05687C1.47397 5.30691 1.3335 5.64605 1.3335 5.99967V13.333C1.3335 13.6866 1.47397 14.0258 1.72402 14.2758C1.97407 14.5259 2.31321 14.6663 2.66683 14.6663H10.0002C10.3538 14.6663 10.6929 14.5259 10.943 14.2758C11.193 14.0258 11.3335 13.6866 11.3335 13.333V5.99967C11.3335 5.64605 11.193 5.30691 10.943 5.05687C10.6929 4.80682 10.3538 4.66634 10.0002 4.66634H2.66683ZM2.66683 5.99967H10.0002V13.333H2.66683V5.99967Z" fill="#3D3D42"/>
</svg>
