<svg width="16" height="16" viewBox="0 0 16 16" fill="none" xmlns="http://www.w3.org/2000/svg">
<path d="M9.52 1.33301C9.79984 1.33308 10.0726 1.4212 10.2995 1.58488C10.5265 1.74856 10.6962 1.97951 10.7847 2.24501L11.1467 3.33301H13.3333C13.5101 3.33301 13.6797 3.40325 13.8047 3.52827C13.9298 3.65329 14 3.82286 14 3.99967C14 4.17649 13.9298 4.34605 13.8047 4.47108C13.6797 4.5961 13.5101 4.66634 13.3333 4.66634L13.3313 4.71367L12.7533 12.809C12.7173 13.3134 12.4915 13.7854 12.1214 14.13C11.7513 14.4747 11.2644 14.6663 10.7587 14.6663H5.24133C4.73564 14.6663 4.24874 14.4747 3.87864 14.13C3.50855 13.7854 3.28274 13.3134 3.24667 12.809L2.66867 4.71301C2.66746 4.69748 2.66679 4.68192 2.66667 4.66634C2.48986 4.66634 2.32029 4.5961 2.19526 4.47108C2.07024 4.34605 2 4.17649 2 3.99967C2 3.82286 2.07024 3.65329 2.19526 3.52827C2.32029 3.40325 2.48986 3.33301 2.66667 3.33301H4.85333L5.21533 2.24501C5.3038 1.9794 5.47362 1.74838 5.70073 1.58468C5.92784 1.42099 6.20071 1.33294 6.48067 1.33301H9.52ZM11.998 4.66634H4.002L4.57667 12.7137C4.58863 12.8818 4.66385 13.0392 4.78717 13.1541C4.9105 13.269 5.07277 13.3329 5.24133 13.333H10.7587C10.9272 13.3329 11.0895 13.269 11.2128 13.1541C11.3362 13.0392 11.4114 12.8818 11.4233 12.7137L11.998 4.66634ZM6.66667 6.66634C6.82996 6.66636 6.98756 6.72631 7.10958 6.83482C7.23161 6.94332 7.30956 7.09284 7.32867 7.25501L7.33333 7.33301V10.6663C7.33315 10.8363 7.26808 10.9997 7.15143 11.1233C7.03479 11.2468 6.87536 11.3212 6.70574 11.3311C6.53611 11.3411 6.36908 11.2859 6.23878 11.1768C6.10848 11.0678 6.02474 10.9131 6.00467 10.7443L6 10.6663V7.33301C6 7.1562 6.07024 6.98663 6.19526 6.8616C6.32029 6.73658 6.48986 6.66634 6.66667 6.66634ZM9.33333 6.66634C9.51014 6.66634 9.67971 6.73658 9.80474 6.8616C9.92976 6.98663 10 7.1562 10 7.33301V10.6663C10 10.8432 9.92976 11.0127 9.80474 11.1377C9.67971 11.2628 9.51014 11.333 9.33333 11.333C9.15652 11.333 8.98695 11.2628 8.86193 11.1377C8.73691 11.0127 8.66667 10.8432 8.66667 10.6663V7.33301C8.66667 7.1562 8.73691 6.98663 8.86193 6.8616C8.98695 6.73658 9.15652 6.66634 9.33333 6.66634ZM9.52 2.66634H6.48L6.258 3.33301H9.742L9.52 2.66634Z" fill="currentColor"/>
</svg>
