<svg width="20" height="20" viewBox="0 0 20 20" fill="none" xmlns="http://www.w3.org/2000/svg">
<path d="M9.99967 2.5C10.2121 2.50024 10.4164 2.58157 10.5708 2.72737C10.7253 2.87318 10.8182 3.07246 10.8307 3.2845C10.8431 3.49653 10.7741 3.70532 10.6378 3.86819C10.5015 4.03107 10.3081 4.13575 10.0972 4.16083L9.99967 4.16667H5.83301C5.6289 4.16669 5.43189 4.24163 5.27936 4.37726C5.12684 4.5129 5.02939 4.69979 5.00551 4.9025L4.99967 5V15C4.9997 15.2041 5.07464 15.4011 5.21027 15.5536C5.3459 15.7062 5.5328 15.8036 5.73551 15.8275L5.83301 15.8333H9.58301C9.79541 15.8336 9.9997 15.9149 10.1541 16.0607C10.3086 16.2065 10.4015 16.4058 10.414 16.6178C10.4264 16.8299 10.3574 17.0386 10.2211 17.2015C10.0848 17.3644 9.89142 17.4691 9.68051 17.4942L9.58301 17.5H5.83301C5.19533 17.5 4.58175 17.2564 4.11779 16.8189C3.65384 16.3815 3.37458 15.7832 3.33717 15.1467L3.33301 15V5C3.33297 4.36232 3.57661 3.74874 4.01408 3.28478C4.45154 2.82083 5.04976 2.54158 5.68634 2.50417L5.83301 2.5H9.99967ZM14.7555 7.05333L17.1122 9.41083C17.2684 9.56711 17.3562 9.77903 17.3562 10C17.3562 10.221 17.2684 10.4329 17.1122 10.5892L14.7555 12.9467C14.5991 13.1029 14.3871 13.1907 14.166 13.1906C13.945 13.1905 13.733 13.1026 13.5768 12.9462C13.4205 12.7899 13.3328 12.5778 13.3328 12.3568C13.3329 12.1357 13.4208 11.9238 13.5772 11.7675L14.5113 10.8333H9.99967C9.77866 10.8333 9.5667 10.7455 9.41042 10.5893C9.25414 10.433 9.16634 10.221 9.16634 10C9.16634 9.77899 9.25414 9.56702 9.41042 9.41074C9.5667 9.25446 9.77866 9.16667 9.99967 9.16667H14.5113L13.5772 8.2325C13.4208 8.07624 13.3329 7.86427 13.3328 7.64321C13.3328 7.42215 13.4205 7.21012 13.5768 7.05375C13.733 6.89738 13.945 6.80949 14.166 6.80941C14.3871 6.80934 14.5991 6.89708 14.7555 7.05333Z" fill="#3D3D42"/>
</svg>
