<svg width="16" height="16" viewBox="0 0 16 16" fill="none" xmlns="http://www.w3.org/2000/svg">
<path d="M4.68249 1.5402C5.18314 1.7098 5.65941 1.94424 6.09916 2.23754C6.72021 2.07881 7.35881 1.99907 7.99983 2.0002C8.66183 2.0002 9.30049 2.08287 9.89916 2.23687C10.3387 1.94385 10.8148 1.70964 11.3152 1.5402C11.7798 1.3822 12.4418 1.1262 12.8352 1.56154C13.1018 1.85754 13.1685 2.35354 13.2158 2.7322C13.2692 3.15487 13.2818 3.70554 13.1418 4.2522C13.6772 4.94354 13.9998 5.7682 13.9998 6.66687C13.9998 8.0282 13.2625 9.2102 12.1712 10.0289C11.6459 10.4179 11.0634 10.7229 10.4445 10.9329C10.5872 11.2595 10.6665 11.6209 10.6665 12.0002V14.0002C10.6665 14.177 10.5963 14.3466 10.4712 14.4716C10.3462 14.5966 10.1766 14.6669 9.99983 14.6669H5.99983C5.82302 14.6669 5.65345 14.5966 5.52842 14.4716C5.4034 14.3466 5.33316 14.177 5.33316 14.0002V13.3395C4.69649 13.4175 4.16249 13.3482 3.70849 13.1555C3.23383 12.9542 2.90316 12.6422 2.65449 12.3435C2.41849 12.0609 2.16116 11.4235 1.78916 11.2995C1.70608 11.2719 1.62926 11.2281 1.56309 11.1708C1.49691 11.1134 1.44269 11.0436 1.4035 10.9653C1.32436 10.8071 1.31129 10.624 1.36716 10.4562C1.42303 10.2884 1.54327 10.1497 1.70143 10.0705C1.85958 9.9914 2.0427 9.97833 2.21049 10.0342C2.65449 10.1822 2.94383 10.5022 3.14183 10.7595C3.46183 11.1729 3.72183 11.7129 4.22849 11.9282C4.43716 12.0169 4.74316 12.0749 5.22183 12.0095L5.33316 11.9869C5.33443 11.6241 5.40999 11.2654 5.55516 10.9329C4.93622 10.7229 4.3537 10.4179 3.82849 10.0289C2.73716 9.2102 1.99983 8.02887 1.99983 6.66687C1.99983 5.76954 2.32183 4.94554 2.85583 4.25487C2.71583 3.7082 2.72783 3.1562 2.78116 2.73287L2.78449 2.70754C2.83316 2.31954 2.88983 1.86287 3.16183 1.56154C3.55516 1.1262 4.21783 1.38287 4.68183 1.54087L4.68249 1.5402Z" fill="#3D3D42"/>
</svg>
