<svg width="1920" height="324" viewBox="0 0 1920 324" fill="none" xmlns="http://www.w3.org/2000/svg">
<path d="M-1047.31 -275.963H2966.31M-959.95 -221.154H2878.95M-879.879 -170.917H2798.88M-806.222 -124.704H2725.22M-738.236 -82.0492H2657.24M-675.291 -42.5575H2594.29M-616.847 -5.8895H2535.85M-562.438 28.2472H2481.44M-511.659 60.1061H2430.66M-464.159 89.9076H2383.16M-419.631 117.845H2338.63M-377.803 144.088H2296.8M-338.438 168.785H2257.44M-301.324 192.071H2220.32M-266.274 214.061H2185.27M-233.12 234.862H2152.12M-201.712 254.568H2120.71M-171.916 273.262H2090.92M-143.611 291.021H2062.61M-116.687 307.913H2035.69M1968.85 324L2979.55 -336M1927.65 324L2897.1 -336M1886.45 324L2814.65 -336M1845.25 324L2732.2 -336M1804.06 324L2649.74 -336M1762.86 324L2567.29 -336M1721.66 324L2484.84 -336M1680.46 324L2402.39 -336M1639.27 324L2319.94 -336M1598.07 324L2237.49 -336M1556.87 324L2155.04 -336M1515.67 324L2072.59 -336M1474.47 324L1990.14 -336M1433.28 324L1907.69 -336M1392.08 324L1825.24 -336M1350.88 324L1742.78 -336M1309.68 324L1660.33 -336M1268.48 324L1577.88 -336M1227.29 324L1495.43 -336M1186.09 324L1412.98 -336M1144.89 324L1330.53 -336M1103.69 324L1248.08 -336M1062.49 324L1165.63 -336M1021.3 324L1083.18 -336M980.099 324L1000.73 -336M938.901 324L918.274 -336M897.703 324L835.823 -336M856.505 324L753.372 -336M815.307 324L670.922 -336M774.109 324L588.471 -336M732.912 324L506.02 -336M691.714 324L423.569 -336M650.516 324L341.118 -336M609.318 324L258.667 -336M568.12 324L176.216 -336M526.922 324L93.7647 -336M485.724 324L11.3137 -336M444.526 324L-71.1372 -336M403.328 324L-153.588 -336M362.13 324L-236.039 -336M320.933 324L-318.49 -336M279.735 324L-400.941 -336M238.537 324L-483.392 -336M197.339 324L-565.843 -336M156.141 324L-648.294 -336M114.943 324L-730.745 -336M73.7452 324L-813.196 -336M32.5474 324L-895.647 -336M-8.6505 324L-978.098 -336M-49.8485 324L-1060.55 -336M-91.0463 324H2010.05L3062 -336H-1143L-91.0463 324Z" stroke="url(#paint0_linear_29301_100756)" stroke-miterlimit="10"/>
<defs>
<linearGradient id="paint0_linear_29301_100756" x1="1627.64" y1="323.429" x2="1627.64" y2="-118.808" gradientUnits="userSpaceOnUse">
<stop offset="0.0258434" stop-color="#811CD6" stop-opacity="0"/>
<stop offset="1" stop-color="#811CD6"/>
</linearGradient>
</defs>
</svg>
