<svg width="9em" height="2em" viewBox="0 0 144 32" fill="none" xmlns="http://www.w3.org/2000/svg">
<path d="M34.3384 11.4762C33.7507 9.22821 32.7101 7.62618 31.4302 6.1866C29.424 3.92963 27.0474 3.75562 26.3565 4.06961C27.0687 3.73828 27.517 3.88725 27.717 3.47888C27.9583 2.98511 27.248 1.10377 24.0309 1.01067C21.2375 0.929764 20.1022 1.94427 19.8512 2.21331C20.248 1.5725 21.3808 1.01837 21.3808 0.59844C21.3808 0.434064 21.2066 0.290231 20.7466 0.170159C19.1113 -0.256834 15.6664 -0.0963077 10.252 3.23874C6.55428 5.51625 4.59187 8.48402 3.71775 11.4755C3.39133 11.4858 3.06748 11.5147 2.75461 11.5667V6.88584C3.13006 6.74587 3.39777 6.38565 3.39777 5.96251C3.39777 5.41801 2.95459 4.97689 2.40754 4.97689C1.86049 4.97689 1.4173 5.41801 1.4173 5.96251C1.4173 6.36639 1.66179 6.71312 2.0108 6.86594V11.7491C0.8567 12.135 0 12.989 0 14.713C0 17.3546 0 17.9151 0 19.356C0 20.6915 1.17474 21.3047 3.13973 21.3876V22.386C3.13973 31.6316 5.76016 34.1531 13.4808 30.1907C21.2014 26.2283 34.8596 40.3166 34.8596 22.9466C34.8596 22.9466 34.8596 22.4676 34.8596 21.3876C36.8246 21.3054 38 20.6915 38 19.356C38 17.9151 38 17.3546 38 14.713C38.0019 12.2268 36.2234 11.5481 34.3384 11.4762ZM12.8789 21.1057C9.91206 21.1057 7.49872 18.7036 7.49872 15.7506C7.49872 12.7983 9.91206 10.3955 12.8789 10.3955C15.8457 10.3955 18.2591 12.7976 18.2591 15.7506C18.2591 18.7036 15.8457 21.1057 12.8789 21.1057ZM25.1243 21.1057C22.1581 21.1057 19.7441 18.7036 19.7441 15.7506C19.7441 12.7983 22.1575 10.3955 25.1243 10.3955C28.0912 10.3955 30.5045 12.7976 30.5045 15.7506C30.5045 18.7036 28.0912 21.1057 25.1243 21.1057Z" fill="#811CD6"/>
<path d="M46 25.9986V6H55.8499C60.1185 6 62.4167 7.52248 62.4167 10.985C62.4167 13.3729 61.0737 14.9251 58.4173 15.2536V15.5524C61.641 15.7912 63.2228 17.821 63.2228 20.5078C63.2228 23.8805 60.8949 26 56.3275 26H46V25.9986ZM50.477 13.9099H55.551C57.2226 13.9099 57.939 13.5517 57.939 11.9698C57.939 10.3583 57.1929 10.0298 55.551 10.0298H50.477V13.9099ZM50.477 21.9688H56.1784C57.8203 21.9688 58.7154 21.6699 58.7154 19.79C58.7154 17.8499 57.85 17.5511 56.1784 17.5511H50.477V21.9688Z" fill="#3D3D42"/>
<path d="M65.4902 25.9986V6H69.968V25.9986H65.4902Z" fill="#3D3D42"/>
<path d="M72.8628 25.9986V6H77.6387L84.1158 16.0293L85.7873 18.7154H86.0855L86.0261 16.0293V6H90.5039V25.9986H85.728L79.5194 16.5366L77.5793 13.4619H77.2805L77.3405 16.5366V25.9986H72.8628Z" fill="#3D3D42"/>
<path d="M93.3994 25.9986V6H97.8764V13.9699H101.667L106.354 6H111.428L105.398 15.9099L111.339 25.9986H106.205L101.727 18.2979H97.8764V25.9986H93.3994Z" fill="#3D3D42"/>
<path d="M117.219 25.9986L124.592 6H131.1L138.473 25.9986H133.607L131.995 21.5512H123.518L121.876 25.9986H117.219ZM124.98 17.5511H130.532L129.397 14.4468L127.935 9.93939H127.636L126.113 14.4468L124.98 17.5511Z" fill="#3D3D42"/>
<path d="M139.396 25.9986V6H143.873V25.9986H139.396Z" fill="#3D3D42"/>
</svg>
