<svg width="20" height="20" viewBox="0 0 20 20" fill="none" xmlns="http://www.w3.org/2000/svg">
<path d="M9.99984 1.66699C14.6023 1.66699 18.3332 5.39783 18.3332 10.0003C18.3332 14.6028 14.6023 18.3337 9.99984 18.3337H3.33317C2.89114 18.3337 2.46722 18.1581 2.15466 17.8455C1.8421 17.5329 1.6665 17.109 1.6665 16.667V10.0003C1.6665 5.39783 5.39734 1.66699 9.99984 1.66699ZM9.99984 3.33366C8.23173 3.33366 6.53604 4.03604 5.28579 5.28628C4.03555 6.53652 3.33317 8.23222 3.33317 10.0003V16.667H9.99984C11.7679 16.667 13.4636 15.9646 14.7139 14.7144C15.9641 13.4641 16.6665 11.7684 16.6665 10.0003C16.6665 8.23222 15.9641 6.53652 14.7139 5.28628C13.4636 4.03604 11.7679 3.33366 9.99984 3.33366ZM9.99984 11.667C10.2122 11.6672 10.4165 11.7486 10.571 11.8944C10.7254 12.0402 10.8184 12.2395 10.8308 12.4515C10.8433 12.6635 10.7743 12.8723 10.638 13.0352C10.5016 13.1981 10.3083 13.3027 10.0973 13.3278L9.99984 13.3337H7.49984C7.28744 13.3334 7.08314 13.2521 6.9287 13.1063C6.77425 12.9605 6.68131 12.7612 6.66886 12.5492C6.65641 12.3371 6.7254 12.1283 6.86172 11.9655C6.99805 11.8026 7.19142 11.6979 7.40234 11.6728L7.49984 11.667H9.99984ZM12.4998 8.33366C12.7209 8.33366 12.9328 8.42146 13.0891 8.57774C13.2454 8.73402 13.3332 8.94598 13.3332 9.16699C13.3332 9.38801 13.2454 9.59997 13.0891 9.75625C12.9328 9.91253 12.7209 10.0003 12.4998 10.0003H7.49984C7.27882 10.0003 7.06686 9.91253 6.91058 9.75625C6.7543 9.59997 6.6665 9.38801 6.6665 9.16699C6.6665 8.94598 6.7543 8.73402 6.91058 8.57774C7.06686 8.42146 7.27882 8.33366 7.49984 8.33366H12.4998Z" fill="#3D3D42"/>
</svg>
