<svg width="16" height="16" viewBox="0 0 16 16" fill="none" xmlns="http://www.w3.org/2000/svg">
<path d="M10.6898 2.00979C11.0488 1.65072 11.5309 1.44163 12.0384 1.42491C12.5459 1.4082 13.0407 1.58512 13.4225 1.91979L13.5185 2.00979L13.9898 2.48112C14.3487 2.84007 14.5577 3.32204 14.5744 3.82935C14.5911 4.33665 14.4143 4.83133 14.0798 5.21312L13.9898 5.30912L6.51518 12.7845C6.4095 12.8901 6.28147 12.9708 6.14052 13.0205L6.03252 13.0518L3.06318 13.7371C2.95916 13.7612 2.85089 13.7599 2.74746 13.7334C2.64403 13.7069 2.54846 13.656 2.46878 13.585C2.3891 13.5139 2.32763 13.4248 2.28953 13.325C2.25144 13.2253 2.23783 13.1179 2.24985 13.0118L2.26318 12.9365L2.94785 9.96645C2.98167 9.82078 3.04774 9.68455 3.14118 9.56779L3.21518 9.48446L10.6898 2.00979ZM10.2185 4.36646L4.22518 10.3598L3.80118 12.1985L5.63985 11.7738L11.6332 5.78045L10.2185 4.36646ZM12.5758 2.95246C12.4611 2.83767 12.3083 2.76872 12.1463 2.75853C11.9843 2.74834 11.8241 2.79762 11.6958 2.89712L11.6332 2.95246L11.1612 3.42379L12.5758 4.83779L13.0472 4.36646C13.162 4.25166 13.2309 4.09893 13.2411 3.93691C13.2513 3.77489 13.202 3.61472 13.1025 3.48646L13.0472 3.42379L12.5758 2.95246Z" fill="#3D3D42"/>
</svg>
